<?xml version="1.0" standalone="no"?>
<!DOCTYPE svg PUBLIC "-//W3C//DTD SVG 20010904//EN"
 "http://www.w3.org/TR/2001/REC-SVG-20010904/DTD/svg10.dtd">
<svg version="1.0" xmlns="http://www.w3.org/2000/svg"
 width="500.000000pt" height="200.000000pt" viewBox="0 0 500.000000 200.000000"
 preserveAspectRatio="xMidYMid meet">

<g transform="translate(0.000000,200.000000) scale(0.100000,-0.100000)"
fill="#000000" stroke="none">
<path d="M0 1000 l0 -1000 2500 0 2500 0 0 1000 0 1000 -2500 0 -2500 0 0
-1000z m1226 402 c-411 -967 -519 -1218 -525 -1225 -4 -4 -67 -6 -139 -5
l-131 3 310 720 c171 396 331 768 356 828 l46 107 69 -151 68 -150 -54 -127z
m754 -122 l0 -220 105 0 105 0 0 -90 0 -90 -210 0 -210 0 0 310 0 310 105 0
105 0 0 -220z m556 41 c38 -99 71 -177 74 -175 3 3 34 83 71 177 l65 172 102
3 c56 1 102 -1 102 -5 0 -4 -53 -144 -117 -310 l-118 -303 -105 0 -105 0 -62
153 c-34 83 -91 223 -126 310 l-65 157 107 0 107 0 70 -179z m922 127 c11 -29
68 -169 126 -311 l105 -258 -111 3 -111 3 -12 35 -12 35 -105 3 -105 3 -12
-41 -12 -40 -111 0 c-100 0 -110 2 -105 18 6 23 226 582 233 593 3 5 52 9 108
9 l103 0 21 -52z m-1833 -728 c125 -289 229 -531 232 -538 4 -10 -24 -12 -132
-10 l-137 3 -75 177 -75 178 -190 0 c-171 0 -190 2 -184 16 3 9 75 182 158
385 143 347 152 368 164 342 6 -16 114 -264 239 -553z m765 -25 c0 -25 -1 -25
-85 -25 l-85 0 0 -35 0 -35 80 0 c79 0 80 0 80 -25 0 -25 -1 -25 -81 -25 l-80
0 3 -42 3 -43 83 -3 c80 -3 82 -3 82 -27 l0 -25 -110 0 -110 0 0 155 0 155
110 0 110 0 0 -25z m137 -20 c15 -25 31 -45 35 -45 4 0 19 20 34 45 23 40 30
45 61 45 34 0 35 -1 21 -22 -9 -13 -30 -47 -48 -76 l-32 -53 34 -52 c19 -29
43 -64 52 -79 l18 -28 -35 0 c-31 0 -39 6 -67 50 -18 28 -36 50 -40 50 -4 0
-22 -22 -40 -50 -28 -44 -36 -50 -67 -50 -38 0 -39 -5 19 82 21 32 41 64 44
72 3 8 -15 47 -40 85 l-46 71 34 0 c30 0 38 -6 63 -45z m412 30 c16 -8 33 -28
39 -44 10 -28 9 -30 -16 -33 -18 -2 -33 4 -45 20 -24 28 -75 30 -105 2 -23
-22 -25 -28 -22 -100 2 -75 69 -116 117 -71 12 11 23 25 25 31 2 7 14 9 30 5
24 -6 26 -9 16 -37 -14 -39 -62 -68 -113 -68 -85 0 -135 56 -135 152 0 102 46
158 132 158 27 0 62 -7 77 -15z m171 -45 l0 -60 60 0 60 0 0 60 0 60 30 0 30
0 0 -155 0 -155 -30 0 -30 0 0 70 0 71 -61 -3 -62 -3 -1 -65 c-1 -63 -2 -65
-28 -68 l-28 -3 0 155 0 156 30 0 30 0 0 -60z m453 -77 c31 -76 59 -146 63
-156 6 -16 2 -18 -27 -15 -28 2 -35 8 -43 36 l-9 32 -68 0 -67 0 -12 -35 c-10
-29 -16 -35 -41 -35 -16 0 -29 2 -29 4 0 6 109 287 116 297 3 5 18 9 33 9 27
0 31 -7 84 -137z m222 42 c31 -52 61 -95 66 -95 5 0 9 43 9 95 0 95 0 95 25
95 l25 0 0 -155 0 -155 -29 0 c-25 0 -35 11 -87 95 -32 52 -63 96 -69 98 -6 3
-9 -29 -7 -94 l3 -99 -25 0 -26 0 0 155 0 155 29 0 c25 0 35 -11 86 -95z m408
83 c28 -15 46 -38 47 -60 0 -25 -42 -23 -65 2 -27 29 -89 27 -120 -5 -20 -19
-25 -34 -25 -75 0 -44 5 -56 29 -81 33 -33 67 -37 112 -13 42 21 35 48 -14 52
-32 3 -37 7 -37 28 0 23 3 24 65 24 l65 0 0 -65 0 -66 -42 -19 c-90 -41 -182
-16 -220 60 -37 72 -14 174 46 211 36 22 125 26 159 7z m347 -13 c0 -25 -1
-25 -85 -25 l-85 0 0 -35 0 -35 80 0 c79 0 80 0 80 -25 0 -25 -1 -25 -81 -25
l-80 0 3 -42 3 -43 83 -3 c80 -3 82 -3 82 -27 l0 -25 -110 0 -110 0 0 155 0
155 110 0 110 0 0 -25z"/>
<path d="M3322 1219 c-5 -13 -19 -50 -30 -81 l-22 -58 64 0 64 0 -30 77 c-16
43 -31 79 -33 82 -3 2 -8 -7 -13 -20z"/>
<path d="M3465 640 c3 -5 -1 -26 -10 -46 -22 -54 -20 -64 18 -64 19 0 36 3 39
6 10 9 -25 103 -39 109 -8 2 -11 1 -8 -5z"/>
</g>
</svg>
